# xmcd
#
# Track frame offsets:
#	182
#	12252
#	26485
#	37890
#	48580
#	61457
#	77017
#	90252
#	100740
#	114177
#	124752
#	140897
#	153702
#	165662
#	178965
#	192072
#	204180
#	218360
#	232285
#	244467
#	254845
#	267657
#	278827
#
# Disc length: 3949 seconds
#
# Revision: 1
# Processed by: cddbd v1.5.1PL0 Copyright (c) Steve Scherf et al.
# Submitted via: audiograbber 1.83.01
#
DISCID=4a0f6b17
DTITLE=Della Reese - C'Mon And Hear
DYEAR=1994
DGENRE=
TTITLE0=After Lovin' You
TTITLE1=Home (When Shadows Fall)
TTITLE2=My Devotion
TTITLE3=It's Magic
TTITLE4=A Wilted Flower
TTITLE5=A Hundred Years From Today
TTITLE6=Her Little Heart Went To Loveland
TTITLE7=I Only Want A Buddy Not A Sweetheart
TTITLE8=I Need You So
TTITLE9=A Lover's Prayer
TTITLE10=Blues For Weepers
TTITLE11=How Do You Keep From Cryin'
TTITLE12=Trav'lin' Light
TTITLE13=If It's The Last Thing I Do
TTITLE14=A Stranger On Earth
TTITLE15=On The South Side Of Chicago
TTITLE16=I Heard You Cried Last Night
TTITLE17=A House Is Not A Home
TTITLE18=The Show Must Go On
TTITLE19=I Gotta Be Me
TTITLE20=For Once In My Life
TTITLE21=And That Reminds Me
TTITLE22=Nothing But A True Love
EXTD=
EXTT0=
EXTT1=
EXTT2=
EXTT3=
EXTT4=
EXTT5=
EXTT6=
EXTT7=
EXTT8=
EXTT9=
EXTT10=
EXTT11=
EXTT12=
EXTT13=
EXTT14=
EXTT15=
EXTT16=
EXTT17=
EXTT18=
EXTT19=
EXTT20=
EXTT21=
EXTT22=
PLAYORDER=
